<svg width="69" height="69" viewBox="0 0 69 69" fill="none" xmlns="http://www.w3.org/2000/svg">
<rect width="69" height="69" rx="34.5" fill="white"/>
<rect x="5.24976" y="5.24988" width="58.5" height="58.5" rx="29.25" fill="white"/>
<path d="M30.0798 25.1276V18.0002C13.3577 18.8912 10.2738 45.5501 31.1078 47.3319C43.3339 47.3319 48.5148 34.722 44.2659 26.087H31.1763V33.4885H38.8518C38.9889 37.3262 35.1511 41.3696 29.6001 40.3416C20.2797 38.0801 21.7875 26.0185 30.0798 25.1276Z" fill="#08080C"/>
<path d="M31.1078 18.0002V24.7849H45.0198C48.8576 30.6786 49.1454 47.4415 31.1078 48.4284V55.8299C46.9384 55.8299 62.2895 36.778 48.8576 18.0002H31.1078Z" fill="#08080C"/>
<path d="M30.0193 55.8235L30.0193 48.5401L24.3126 48.5401C27.6405 50.7316 29.132 54.3089 29.4364 55.8235L30.0193 55.8235Z" fill="#08080C"/>
<rect x="5.24976" y="5.24988" width="58.5" height="58.5" rx="29.25" stroke="#08080C" stroke-width="1.5"/>
</svg>
