<svg width="39" height="42" viewBox="0 0 39 42" fill="none" xmlns="http://www.w3.org/2000/svg">
<path d="M31.9379 7.22524L31.79 6.99808H31.5189H16.6441V0.5H38V41.3075H16.6441V34.0977C21.4718 33.7624 25.1374 32.3987 27.849 30.4036C30.649 28.3433 32.4016 25.6318 33.3712 22.7562C35.3001 17.0354 34.1455 10.6155 31.9379 7.22524ZM24.7024 16.6168H16.7198V9.4371H30.3709C32.4983 14.0033 32.2148 19.5648 29.8031 24.017C27.3542 28.5378 22.7152 31.9086 16.1654 31.9159C10.5323 31.4296 6.56285 29.2708 4.03315 26.3324C1.49579 23.3851 0.373323 19.6146 0.511294 15.8571C0.782364 8.4747 5.89593 1.26644 14.508 0.535622V7.43763C9.92639 8.13736 7.22582 11.8254 6.945 15.6793C6.65345 19.6805 8.9621 23.8668 14.36 25.1765L14.3733 25.1798L14.3868 25.1823C20.8177 26.3732 25.3657 21.6785 25.2021 17.099L25.1849 16.6168H24.7024Z" fill="#7871F0" fill-opacity="0.58" stroke="#5047EB"/>
<path d="M14.4409 34.2515L14.4409 40.4923C13.821 38.7455 12.4723 36.223 10.1361 34.2515L14.4409 34.2515Z" fill="#7871F0" fill-opacity="0.58" stroke="#5047EB"/>
</svg>
