<svg width="120" height="108" viewBox="0 0 120 108" fill="none" xmlns="http://www.w3.org/2000/svg">
<path d="M60 43.3876C65.7488 43.3876 70.4372 48.1042 70.4372 54C70.4372 59.615 65.7488 64.3878 60 64.3878C54.2512 64.3878 49.5628 59.615 49.5628 54C49.5628 48.1042 54.2512 43.3876 60 43.3876ZM34.1581 98.9203C37.6744 101.054 45.3767 97.7973 54.2512 89.3747C51.3488 86.0619 48.5023 82.4682 45.8233 78.7062C41.3255 78.2731 36.854 77.5984 32.4279 76.6848C29.5814 88.7009 30.6419 96.955 34.1581 98.9203ZM38.1209 66.69L36.5023 63.8263C35.8884 65.4547 35.2744 67.083 34.8837 68.6552C36.3907 68.9921 38.0651 69.2729 39.7953 69.5537L38.1209 66.69ZM74.6233 62.4226L79.1442 54L74.6233 45.5774C72.9488 42.6015 71.1628 39.9624 69.5442 37.3233C66.5302 37.1549 63.3488 37.1549 60 37.1549C56.6512 37.1549 53.4698 37.1549 50.4558 37.3233C48.8372 39.9624 47.0512 42.6015 45.3767 45.5774L40.8558 54L45.3767 62.4226C47.0512 65.3985 48.8372 68.0376 50.4558 70.6767C53.4698 70.8451 56.6512 70.8451 60 70.8451C63.3488 70.8451 66.5302 70.8451 69.5442 70.6767C71.1628 68.0376 72.9488 65.3985 74.6233 62.4226ZM60 24.6895C58.9395 25.9248 57.8233 27.2163 56.707 28.7323H63.293C62.1767 27.2163 61.0605 25.9248 60 24.6895ZM60 83.3105C61.0605 82.0752 62.1767 80.7837 63.293 79.2677H56.707C57.8233 80.7837 58.9395 82.0752 60 83.3105ZM85.786 9.0797C82.3256 6.94599 74.6233 10.2027 65.7488 18.6253C68.6512 21.9381 71.4977 25.5318 74.1767 29.2938C78.7535 29.743 83.2744 30.4168 87.5721 31.3152C90.4186 19.2991 89.3581 11.045 85.786 9.0797ZM81.8791 41.31L83.4977 44.1737C84.1116 42.5453 84.7256 40.917 85.1163 39.3448C83.6093 39.0079 81.9349 38.7271 80.2047 38.4463L81.8791 41.31ZM89.9721 1.724C98.1767 6.44063 99.0698 18.8499 95.6093 33.3367C109.786 37.5479 120 44.5106 120 54C120 63.4894 109.786 70.4521 95.6093 74.6633C99.0698 89.1501 98.1767 101.559 89.9721 106.276C81.8233 110.993 70.7163 105.602 60 95.3267C49.2837 105.602 38.1767 110.993 29.9721 106.276C21.8233 101.559 20.9302 89.1501 24.3907 74.6633C10.214 70.4521 0 63.4894 0 54C0 44.5106 10.214 37.5479 24.3907 33.3367C20.9302 18.8499 21.8233 6.44063 29.9721 1.724C38.1767 -2.99263 49.2837 2.39781 60 12.6733C70.7163 2.39781 81.8233 -2.99263 89.9721 1.724ZM88.3535 54C90.2512 58.2113 91.9256 62.4226 93.3209 66.69C105.042 63.1525 111.628 58.099 111.628 54C111.628 49.901 105.042 44.8475 93.3209 41.31C91.9256 45.5774 90.2512 49.7887 88.3535 54ZM31.6465 54C29.7488 49.7887 28.0744 45.5774 26.6791 41.31C14.9581 44.8475 8.37209 49.901 8.37209 54C8.37209 58.099 14.9581 63.1525 26.6791 66.69C28.0744 62.4226 29.7488 58.2113 31.6465 54ZM81.8791 66.69L80.2047 69.5537C81.9349 69.2729 83.6093 68.9921 85.1163 68.6552C84.7256 67.083 84.1116 65.4547 83.4977 63.8263L81.8791 66.69ZM65.7488 89.3747C74.6233 97.7973 82.3256 101.054 85.786 98.9203C89.3581 96.955 90.4186 88.7009 87.5721 76.6848C83.2744 77.5832 78.7535 78.257 74.1767 78.7062C71.4977 82.4682 68.6512 86.0619 65.7488 89.3747ZM38.1209 41.31L39.7953 38.4463C38.0651 38.7271 36.3907 39.0079 34.8837 39.3448C35.2744 40.917 35.8884 42.5453 36.5023 44.1737L38.1209 41.31ZM54.2512 18.6253C45.3767 10.2027 37.6744 6.94599 34.1581 9.0797C30.6419 11.045 29.5814 19.2991 32.4279 31.3152C36.854 30.4016 41.3255 29.7269 45.8233 29.2938C48.5023 25.5318 51.3488 21.9381 54.2512 18.6253Z" fill="#5047EB"/>
</svg>
